<svg width="144" height="46" viewBox="0 0 144 46" fill="none" xmlns="http://www.w3.org/2000/svg">
<path d="M62.3015 14.3709L59.1251 6.32902L55.9361 14.3709H62.3015ZM65.0998 21.5052L63.0704 16.3373H55.1672L53.1126 21.5052H50.6547L58.0537 2.85009H60.6755L67.9611 21.5052H65.0998Z" fill="white"/>
<path d="M70.9193 21.5052V2.85009H76.5663C78.3562 2.85009 79.7259 3.24504 80.6754 4.03494C81.6334 4.82484 82.1124 5.97188 82.1124 7.47606C82.1124 9.96341 80.8561 11.7281 78.3435 12.7701L84.5703 21.5052H81.3183L76.0117 13.6146H73.5411V21.5052H70.9193ZM73.5411 11.6357H74.3982C77.7259 11.6357 79.3897 10.329 79.3897 7.71555C79.3897 5.79121 77.9948 4.82905 75.2049 4.82905H73.5411V11.6357Z" fill="white"/>
<path d="M87.5033 21.5052V2.85009H93.1503C94.9402 2.85009 96.3099 3.24504 97.2595 4.03494C98.2174 4.82484 98.6964 5.97188 98.6964 7.47606C98.6964 9.96341 97.4401 11.7281 94.9276 12.7701L101.154 21.5052H97.9023L92.5957 13.6146H90.1251V21.5052H87.5033ZM90.1251 11.6357H90.9822C94.3099 11.6357 95.9738 10.329 95.9738 7.71555C95.9738 5.79121 94.5788 4.82905 91.789 4.82905H90.1251V11.6357Z" fill="white"/>
<path d="M111.342 21.9716C108.753 21.9716 106.669 21.0767 105.09 19.2868C103.518 17.4885 102.733 15.1146 102.733 12.1651C102.733 9.19872 103.522 6.82901 105.102 5.05593C106.69 3.27445 108.808 2.38371 111.455 2.38371C114.094 2.38371 116.207 3.27025 117.795 5.04333C119.384 6.81641 120.178 9.18191 120.178 12.1398C120.178 15.1566 119.384 17.5515 117.795 19.3246C116.207 21.0893 114.056 21.9716 111.342 21.9716ZM111.379 19.9927C113.287 19.9927 114.762 19.3078 115.804 17.9381C116.846 16.5599 117.367 14.6188 117.367 12.1146C117.367 9.68611 116.842 7.78698 115.791 6.41725C114.749 5.04753 113.304 4.36267 111.455 4.36267C109.598 4.36267 108.148 5.05173 107.106 6.42986C106.064 7.79958 105.543 9.70712 105.543 12.1525C105.543 14.5894 106.06 16.5053 107.094 17.9003C108.127 19.2952 109.556 19.9927 111.379 19.9927Z" fill="white"/>
<path d="M126.306 21.5052L121.504 2.85009H124.05L127.869 17.5851L131.386 2.85009H133.932L137.26 17.3835L141.369 2.85009H143.524L138.293 21.5052H135.659L132.369 7.12313L128.928 21.5052H126.306Z" fill="white"/>
<path d="M55.6172 33.8557L54.231 30.3462L52.8393 33.8557H55.6172ZM56.8384 36.9692L55.9527 34.7139H52.5037L51.6071 36.9692H50.5344L53.7634 28.828H54.9076L58.0871 36.9692H56.8384Z" fill="white"/>
<path d="M59.2697 36.9692V28.828H61.9761C62.7829 28.828 63.4339 28.9178 63.9289 29.0975C64.4277 29.2772 64.8586 29.5816 65.2216 30.0106C65.7974 30.6927 66.0853 31.5912 66.0853 32.7061C66.0853 34.0593 65.7277 35.1081 65.0126 35.8525C64.2975 36.597 63.2908 36.9692 61.9926 36.9692H59.2697ZM60.4249 36.1056H61.9046C62.9608 36.1056 63.7089 35.8214 64.149 35.2529C64.622 34.6478 64.8586 33.8356 64.8586 32.8161C64.8586 31.8589 64.6257 31.1071 64.16 30.5607C63.8776 30.227 63.5402 29.9996 63.1478 29.8786C62.7554 29.7539 62.165 29.6916 61.3766 29.6916H60.4249V36.1056Z" fill="white"/>
<path d="M67.708 36.9692V28.828H69.3088L71.5641 35.1264L73.8854 28.828H75.3157V36.9692H74.2375V30.3462L71.9932 36.4246H70.8765L68.6982 30.3297V36.9692H67.708Z" fill="white"/>
<path d="M77.406 36.9692V28.828H78.5611V36.9692H77.406Z" fill="white"/>
<path d="M80.657 36.9692V28.828H81.7901L85.8883 35.1154V28.828H86.8784V36.9692H85.7507L81.6471 30.6817V36.9692H80.657Z" fill="white"/>
<path d="M88.9797 36.9692V28.828H90.1349V36.9692H88.9797Z" fill="white"/>
<path d="M93.826 37.1727C93.2795 37.1727 92.5809 37.0535 91.7301 36.8152V35.671C92.6469 36.0964 93.4006 36.3091 93.991 36.3091C94.4457 36.3091 94.8106 36.1899 95.0856 35.9515C95.3643 35.7132 95.5037 35.3996 95.5037 35.0109C95.5037 34.6919 95.412 34.4205 95.2287 34.1968C95.049 33.9731 94.7152 33.7237 94.2275 33.4487L93.6664 33.1241C92.9733 32.7281 92.4837 32.3558 92.1977 32.0074C91.9153 31.6554 91.7741 31.2465 91.7741 30.7808C91.7741 30.1537 92.0015 29.6384 92.4562 29.235C92.911 28.828 93.4904 28.6244 94.1945 28.6244C94.8216 28.6244 95.4835 28.729 96.1803 28.938V29.9941C95.3222 29.6568 94.6822 29.4881 94.2605 29.4881C93.8608 29.4881 93.5307 29.5944 93.2704 29.8071C93.01 30.0198 92.8798 30.2875 92.8798 30.6102C92.8798 30.8816 92.9752 31.1218 93.1658 31.3308C93.3565 31.5399 93.7049 31.7892 94.211 32.079L94.7941 32.409C95.4982 32.8087 95.9896 33.1865 96.2683 33.5422C96.547 33.8979 96.6864 34.3251 96.6864 34.8239C96.6864 35.5316 96.4242 36.1001 95.8998 36.5291C95.379 36.9582 94.6877 37.1727 93.826 37.1727Z" fill="white"/>
<path d="M100.24 36.9692V29.6916H97.352V28.828H104.283V29.6916H101.395V36.9692H100.24Z" fill="white"/>
<path d="M105.433 36.9692V28.828H107.897C108.678 28.828 109.276 29.0003 109.69 29.345C110.108 29.6898 110.317 30.1903 110.317 30.8468C110.317 31.9323 109.769 32.7024 108.673 33.1571L111.39 36.9692H109.971L107.655 33.5257H106.577V36.9692H105.433ZM106.577 32.662H106.951C108.403 32.662 109.129 32.0918 109.129 30.9513C109.129 30.1115 108.52 29.6916 107.303 29.6916H106.577V32.662Z" fill="white"/>
<path d="M116.687 33.8557L115.301 30.3462L113.909 33.8557H116.687ZM117.909 36.9692L117.023 34.7139H113.574L112.677 36.9692H111.605L114.834 28.828H115.978L119.157 36.9692H117.909Z" fill="white"/>
<path d="M121.6 36.9692V29.6916H118.712V28.828H125.643V29.6916H122.755V36.9692H121.6Z" fill="white"/>
<path d="M126.788 36.9692V28.828H127.943V36.9692H126.788Z" fill="white"/>
<path d="M132.261 36.9692L129.186 28.828H130.341L132.86 35.495L135.292 28.828H136.304L133.35 36.9692H132.261Z" fill="white"/>
<path d="M137.41 36.9692V28.828H141.959V29.6916H138.565V32.3045H141.409V33.1571H138.565V36.1056H142.195V36.9692H137.41Z" fill="white"/>
<path fill-rule="evenodd" clip-rule="evenodd" d="M22.8019 5.5876C13.1066 5.5876 5.2469 13.4473 5.2469 23.1426C5.2469 32.8379 13.1066 40.6976 22.8019 40.6976C32.4972 40.6976 40.3569 32.8379 40.3569 23.1426C40.3569 13.4473 32.4972 5.5876 22.8019 5.5876ZM0.246899 23.1426C0.246899 10.6859 10.3452 0.587601 22.8019 0.587601C35.2586 0.587601 45.3569 10.6859 45.3569 23.1426C45.3569 35.5993 35.2586 45.6976 22.8019 45.6976C10.3452 45.6976 0.246899 35.5993 0.246899 23.1426Z" fill="#ED3246"/>
<path fill-rule="evenodd" clip-rule="evenodd" d="M29.54 23.0313L15.978 36.5933H23.947L37.509 23.0313L23.99 9.5123H16.021L29.54 23.0313Z" fill="#ED3245"/>
<path fill-rule="evenodd" clip-rule="evenodd" d="M14.7627 22.606V28.241H20.3837L26.0757 22.606H14.7627Z" fill="#ED3245"/>
</svg>
